<svg width="960" height="620" viewBox="0 0 960 620" fill="none" xmlns="http://www.w3.org/2000/svg">
  <defs>
    <linearGradient id="bg" x1="0" y1="0" x2="960" y2="620" gradientUnits="userSpaceOnUse">
      <stop stop-color="#EAF3FF"/>
      <stop offset="1" stop-color="#CFE2FF"/>
    </linearGradient>
    <linearGradient id="accent" x1="190" y1="120" x2="770" y2="540" gradientUnits="userSpaceOnUse">
      <stop stop-color="#4E8AF7"/>
      <stop offset="1" stop-color="#7CCBFF"/>
    </linearGradient>
    <linearGradient id="card" x1="250" y1="170" x2="690" y2="470" gradientUnits="userSpaceOnUse">
      <stop stop-color="#FFFFFF"/>
      <stop offset="1" stop-color="#F6FBFF"/>
    </linearGradient>
    <filter id="shadow" x="140" y="90" width="680" height="460" filterUnits="userSpaceOnUse" color-interpolation-filters="sRGB">
      <feFlood flood-opacity="0" result="BackgroundImageFix"/>
      <feColorMatrix in="SourceAlpha" type="matrix" values="0 0 0 0 0 0 0 0 0 0 0 0 0 0 0 0 0 0 127 0" result="hardAlpha"/>
      <feOffset dy="18"/>
      <feGaussianBlur stdDeviation="24"/>
      <feColorMatrix type="matrix" values="0 0 0 0 0.10 0 0 0 0 0.25 0 0 0 0 0.55 0 0 0 0.18 0"/>
      <feBlend mode="normal" in2="BackgroundImageFix" result="effect1_dropShadow"/>
      <feBlend mode="normal" in="SourceGraphic" in2="effect1_dropShadow" result="shape"/>
    </filter>
  </defs>

  <rect width="960" height="620" rx="32" fill="url(#bg)"/>
  <circle cx="180" cy="120" r="110" fill="#FFFFFF" fill-opacity="0.36"/>
  <circle cx="805" cy="110" r="150" fill="#FFFFFF" fill-opacity="0.28"/>
  <circle cx="790" cy="500" r="120" fill="#FFFFFF" fill-opacity="0.18"/>

  <g filter="url(#shadow)">
    <rect x="200" y="120" width="560" height="380" rx="30" fill="url(#card)"/>
    <rect x="200" y="120" width="560" height="380" rx="30" stroke="#DCEAFF"/>

    <rect x="238" y="156" width="492" height="82" rx="22" fill="#F7FBFF"/>
    <rect x="238" y="156" width="492" height="82" rx="22" stroke="#DCEAFF"/>
    <rect x="266" y="182" width="210" height="20" rx="10" fill="#D4E5FF"/>
    <rect x="266" y="210" width="140" height="10" rx="5" fill="#B9D4FF"/>

    <rect x="238" y="258" width="184" height="176" rx="26" fill="#F3F8FF"/>
    <rect x="438" y="258" width="292" height="82" rx="22" fill="#F3F8FF"/>
    <rect x="438" y="352" width="132" height="82" rx="22" fill="#F3F8FF"/>
    <rect x="586" y="352" width="144" height="82" rx="22" fill="#F3F8FF"/>

    <circle cx="330" cy="336" r="54" fill="url(#accent)"/>
    <path d="M303 316H357L351 346H310L303 316Z" fill="white" fill-opacity="0.95"/>
    <path d="M314 312L308 300H298" stroke="white" stroke-width="7" stroke-linecap="round" stroke-linejoin="round"/>
    <circle cx="317" cy="358" r="7" fill="#4E8AF7"/>
    <circle cx="345" cy="358" r="7" fill="#4E8AF7"/>

    <rect x="461" y="284" width="140" height="18" rx="9" fill="#BFD8FF"/>
    <rect x="461" y="314" width="172" height="12" rx="6" fill="#D9E8FF"/>
    <rect x="461" y="378" width="90" height="12" rx="6" fill="#BFD8FF"/>
    <rect x="461" y="400" width="112" height="12" rx="6" fill="#D9E8FF"/>

    <rect x="607" y="378" width="94" height="14" rx="7" fill="#D8E8FF"/>
    <rect x="607" y="402" width="68" height="14" rx="7" fill="#BFD8FF"/>

    <circle cx="705" cy="292" r="26" fill="#DFF0FF"/>
    <path d="M695 292H715" stroke="#4E8AF7" stroke-width="6" stroke-linecap="round"/>
    <path d="M705 282V302" stroke="#4E8AF7" stroke-width="6" stroke-linecap="round"/>
  </g>

  <rect x="250" y="470" width="460" height="42" rx="21" fill="#2C6EDB" fill-opacity="0.12"/>
  <path d="M286 491H674" stroke="#2C6EDB" stroke-opacity="0.3" stroke-width="6" stroke-linecap="round"/>
</svg>
